<svg width="596px" height="173px" viewBox="0 0 596 173">
    <g transform="matrix(1,0,0,1,-162,-1965)">
        <g transform="matrix(0.44423,0,0,1.458,31.9845,-47.6577)">
            <g transform="matrix(1.96381,0,0,0.78065,-1062.39,1739.38)">
                <g transform="matrix(1.04115,0,0,0.798,1160.35,-371.445)">
                    <path d="M0,-30.873C-4.292,-28.564 -11.113,-27.398 -20.453,-27.363C-38.404,-27.296 -47.392,-32.387 -47.43,-42.647C-47.453,-48.87 -45.136,-53.549 -40.479,-56.683C-35.819,-59.817 -29.19,-61.395 -20.579,-61.427C-11.788,-61.459 -5.094,-59.931 -0.508,-56.832C4.079,-53.731 6.389,-49.07 6.412,-42.847C6.433,-37.173 4.292,-33.181 0,-30.873M-176.829,-30.224C-181.122,-27.915 -187.943,-26.749 -197.282,-26.714C-215.233,-26.647 -224.223,-31.738 -224.261,-41.998C-224.284,-48.221 -221.967,-52.9 -217.308,-56.034C-212.649,-59.168 -206.021,-60.746 -197.409,-60.778C-188.619,-60.81 -181.925,-59.282 -177.337,-56.183C-172.752,-53.082 -170.442,-48.421 -170.418,-42.198C-170.397,-36.524 -172.538,-32.532 -176.829,-30.224M197.345,-6.743C195.666,-15.159 193.347,-21.976 190.401,-27.184C187.455,-32.393 183.913,-36.13 179.782,-38.408C175.654,-40.685 171.212,-41.81 166.446,-41.792C162.6,-41.778 159.538,-41.629 157.247,-41.346C154.954,-41.063 152.345,-40.915 149.418,-40.905C145.751,-40.891 142.726,-42.116 140.339,-44.58C137.952,-47.043 136.469,-50.926 135.9,-56.239C135.522,-58.615 135.565,-61.003 136.011,-63.381C136.457,-65.761 136.954,-68.15 137.495,-70.53C138.036,-72.909 138.576,-75.383 139.116,-77.953C139.656,-80.523 139.741,-83.269 139.361,-86.195C138.605,-93.155 136.252,-98.366 132.297,-101.827C128.343,-105.289 122.156,-107.01 113.735,-106.978C106.413,-106.951 100.555,-105.513 96.17,-102.655C91.785,-99.797 88.137,-94.701 85.238,-87.368C82.153,-78.936 80.041,-69.904 78.882,-60.285C77.725,-50.666 76.25,-40.908 74.458,-31.012C74.436,-30.822 74.375,-30.645 74.351,-30.456C73.248,-35.39 71.921,-40.228 70.138,-44.869C65.327,-57.393 58.555,-68.218 49.826,-77.347C41.096,-86.475 30.673,-93.663 18.565,-98.933C6.459,-104.203 -6.831,-106.806 -21.297,-106.752C-35.402,-106.7 -48.388,-103.999 -60.275,-98.64C-72.162,-93.282 -82.342,-85.964 -90.824,-76.687C-97.703,-69.164 -103.275,-60.497 -107.677,-50.813C-112.199,-60.557 -117.957,-69.227 -125.1,-76.698C-133.83,-85.826 -144.255,-93.014 -156.361,-98.284C-168.468,-103.554 -181.758,-106.157 -196.223,-106.103C-210.329,-106.051 -223.315,-103.35 -235.202,-97.991C-247.089,-92.633 -257.27,-85.315 -265.75,-76.038C-273.493,-66.474 -276.437,-60.681 -282.21,-48.896C-298.904,-14.936 -346.019,-27.307 -356.425,-38.067C-359.143,-40.877 -361.015,-43.054 -361.408,-48.35C-361.43,-54.214 -359.702,-58.383 -356.236,-60.868C-352.768,-63.354 -348.462,-64.606 -343.337,-64.625C-340.042,-64.637 -336.976,-64.416 -334.133,-63.972C-331.289,-63.529 -328.497,-62.99 -325.748,-62.355C-322.999,-61.721 -320.25,-61.182 -317.501,-60.737C-314.752,-60.293 -311.824,-60.071 -308.708,-60.083C-303.763,-60.101 -300.336,-61.762 -298.423,-65.066C-296.514,-68.37 -295.566,-72.314 -295.583,-76.889C-295.618,-86.23 -300.408,-93.217 -309.947,-97.851C-319.482,-102.486 -334.876,-104.859 -356.124,-104.96C-370.409,-104.907 -383.216,-102.25 -394.554,-96.988C-405.894,-91.726 -415.429,-84.506 -423.181,-75.317C-430.934,-66.127 -436.885,-55.35 -441.055,-42.972C-445.224,-30.595 -447.277,-17.168 -447.223,-2.704C-447.174,10.482 -445.8,22.015 -443.112,31.894C-440.423,41.774 -435.585,49.997 -428.598,56.565C-421.611,63.132 -412.116,68.041 -400.112,71.293C-388.107,74.545 -372.759,76.137 -354.08,76.068C-340.523,76.017 -328.905,74.917 -319.204,72.779C-309.501,70.64 -301.547,67.219 -295.341,62.526C-289.498,58.107 -285.166,52.39 -282.254,45.462C-279.774,49.398 -276.779,52.961 -273.228,56.126C-265.966,62.597 -256.058,67.367 -243.505,70.438C-230.952,73.508 -214.961,75.002 -195.551,74.93C-175.592,74.856 -159.254,73.242 -146.533,70.078C-133.812,66.914 -123.804,62.069 -116.507,55.544C-112.908,52.326 -109.886,48.698 -107.424,44.679C-104.927,48.672 -101.893,52.275 -98.301,55.477C-91.039,61.947 -81.131,66.718 -68.578,69.788C-56.025,72.859 -40.034,74.353 -20.625,74.281C-0.665,74.207 15.673,72.593 28.394,69.429C41.114,66.265 51.124,61.42 58.42,54.895C61.59,52.061 64.235,48.856 66.523,45.401C67.241,47.588 68.056,49.719 69.134,51.696C71.623,56.262 75.389,60.189 80.44,63.466C85.493,66.744 92,69.235 99.973,70.949C107.946,72.662 117.607,73.493 128.965,73.451C142.151,73.402 153.274,72.494 162.331,70.717C171.391,68.941 178.702,66.124 184.278,62.257C189.852,58.391 193.859,53.336 196.308,47.103C198.757,40.871 199.965,33.26 199.932,24.289C199.886,12.022 199.025,1.671 197.345,-6.743" style="fill:rgb(153,168,255);fill-rule:nonzero;" />
                </g>
                <g transform="matrix(1.04115,0,0,0.798,1139.2,-350.195)">
                    <path d="M0,-84.566L-0.255,-84.566C-8.128,-84.539 -14.175,-83.139 -18.212,-80.415C-21.876,-77.956 -23.649,-74.315 -23.631,-69.287C-23.621,-66.363 -23.576,-57.485 -0.5,-57.485L-0.155,-57.485C8.565,-57.517 14.902,-58.553 18.657,-60.576C20.63,-61.64 23.258,-63.718 23.23,-69.459C23.212,-74.501 21.458,-78.133 17.848,-80.57C13.929,-83.22 7.919,-84.566 0,-84.566M-0.482,-50.502C-25.313,-50.502 -30.577,-60.69 -30.613,-69.264C-30.632,-76.701 -27.777,-82.397 -22.112,-86.207C-16.911,-89.717 -9.556,-91.512 -0.273,-91.549L0,-91.549C9.347,-91.549 16.666,-89.803 21.758,-86.353C27.349,-82.579 30.195,-76.906 30.213,-69.487C30.259,-60.731 25.749,-56.467 21.967,-54.43C17.12,-51.821 9.892,-50.539 -0.136,-50.502L-0.482,-50.502ZM-176.834,-83.916L-177.088,-83.916C-184.953,-83.889 -190.999,-82.493 -195.054,-79.765C-198.709,-77.306 -200.473,-73.664 -200.455,-68.641C-200.437,-64.772 -198.855,-62.076 -195.454,-60.149C-191.572,-57.949 -185.471,-56.835 -177.325,-56.835L-176.979,-56.835C-168.251,-56.867 -161.923,-57.908 -158.177,-59.926C-156.204,-60.99 -153.576,-63.068 -153.594,-68.818C-153.612,-73.851 -155.376,-77.483 -158.977,-79.92C-162.904,-82.57 -168.914,-83.916 -176.834,-83.916M-177.334,-49.852C-186.826,-49.852 -193.882,-51.234 -198.9,-54.075C-204.465,-57.226 -207.42,-62.254 -207.438,-68.614C-207.474,-76.042 -204.619,-81.743 -198.955,-85.562C-193.654,-89.121 -186.508,-90.862 -177.106,-90.899C-167.405,-90.99 -160.295,-89.23 -155.067,-85.702C-149.484,-81.929 -146.648,-76.256 -146.611,-68.841C-146.584,-60.076 -151.085,-55.812 -154.867,-53.78C-159.704,-51.175 -166.932,-49.893 -176.961,-49.852L-177.334,-49.852ZM-335.829,-128.099C-349.512,-128.045 -361.95,-125.472 -372.77,-120.448C-383.59,-115.429 -392.818,-108.447 -400.192,-99.695C-407.629,-90.89 -413.43,-80.393 -417.431,-68.486C-421.459,-56.539 -423.477,-43.374 -423.423,-29.349C-423.368,-16.538 -422.031,-5.2 -419.431,4.351C-416.931,13.552 -412.376,21.303 -405.893,27.39C-399.365,33.528 -390.282,38.206 -378.88,41.297C-367.242,44.447 -352.322,45.802 -333.774,45.948C-320.563,45.898 -309.079,44.82 -299.651,42.738C-290.504,40.724 -282.921,37.487 -277.129,33.109C-271.883,29.141 -267.855,23.881 -265.164,17.48C-264.664,16.28 -263.528,15.457 -262.237,15.352C-260.882,15.198 -259.691,15.866 -258.991,16.966C-256.672,20.649 -253.844,23.99 -250.589,26.89C-243.798,32.946 -234.296,37.496 -222.367,40.415C-210.175,43.397 -194.491,44.92 -175.252,44.811C-155.658,44.734 -139.438,43.138 -127.063,40.06C-114.961,37.051 -105.36,32.423 -98.523,26.309C-95.222,23.358 -92.386,19.967 -90.085,16.225C-89.449,15.184 -88.085,14.352 -87.112,14.557C-85.912,14.557 -84.794,15.175 -84.148,16.198C-81.821,19.921 -78.966,23.299 -75.674,26.24C-68.873,32.291 -59.381,36.846 -47.443,39.77C-35.223,42.756 -19.475,44.202 -0.318,44.161C19.266,44.088 35.478,42.493 47.861,39.41C59.963,36.401 69.564,31.777 76.401,25.668C79.175,23.19 81.639,20.303 83.93,16.844C84.675,15.725 86.003,15.13 87.312,15.312C88.64,15.493 89.749,16.421 90.158,17.694C90.922,20.039 91.667,21.849 92.513,23.39C94.704,27.427 98.114,30.964 102.651,33.91C107.315,36.933 113.498,39.288 121.026,40.906C128.7,42.556 138.337,43.265 149.257,43.329C162.177,43.284 173.179,42.388 181.971,40.661C190.526,38.983 197.464,36.324 202.601,32.759C207.629,29.268 211.157,24.831 213.375,19.198C215.648,13.402 216.785,6.16 216.748,-2.327C216.703,-14.352 215.857,-24.562 214.23,-32.686C212.63,-40.701 210.42,-47.229 207.674,-52.093C205.065,-56.703 201.946,-60.026 198.409,-61.976C194.809,-63.963 191.036,-64.931 186.88,-64.931L186.808,-64.931C183.098,-64.918 180.18,-64.781 177.988,-64.513C175.579,-64.213 172.833,-64.054 169.751,-64.04L169.696,-64.04C165.078,-64.04 161.195,-65.636 158.14,-68.777C155.212,-71.81 153.394,-76.424 152.739,-82.498C152.321,-85.052 152.367,-87.857 152.894,-90.653C153.339,-93.076 153.849,-95.508 154.394,-97.927C154.94,-100.3 155.476,-102.759 156.013,-105.31C156.467,-107.474 156.531,-109.856 156.213,-112.383C155.531,-118.566 153.603,-122.949 150.312,-125.831C147.03,-128.704 141.783,-130.227 134.055,-130.118C127.454,-130.095 122.181,-128.827 118.38,-126.358C114.643,-123.917 111.415,-119.325 108.797,-112.715C105.851,-104.66 103.778,-95.808 102.66,-86.498C101.514,-76.951 100.014,-67.032 98.204,-57.017C97.905,-55.385 96.441,-53.907 94.786,-53.871C92.813,-53.694 91.613,-54.703 91.249,-56.326C90.049,-61.699 88.721,-66.254 87.194,-70.241C82.566,-82.275 75.983,-92.813 67.609,-101.564C59.263,-110.301 49.125,-117.298 37.487,-122.362C25.876,-127.408 12.72,-129.763 -0.973,-129.89C-14.52,-129.836 -27.158,-127.213 -38.524,-122.089C-49.907,-116.957 -59.808,-109.851 -67.937,-100.964C-74.41,-93.885 -79.875,-85.484 -84.184,-75.997C-84.748,-74.756 -85.985,-73.955 -87.358,-73.951L-87.367,-73.951C-88.721,-73.951 -89.958,-74.737 -90.531,-75.974C-94.959,-85.512 -100.605,-93.904 -107.306,-100.914C-115.662,-109.642 -125.79,-116.643 -137.437,-121.712C-149.039,-126.758 -161.913,-129.127 -175.906,-129.24C-189.445,-129.19 -202.083,-126.567 -213.457,-121.439C-224.849,-116.298 -234.742,-109.192 -242.861,-100.314C-250.18,-91.262 -253.026,-85.698 -258.763,-73.987C-265.155,-60.995 -276.429,-52.889 -291.386,-50.543C-309.77,-47.647 -331.019,-54.407 -338.62,-62.267C-341.711,-65.459 -344.112,-68.405 -344.575,-74.719C-344.621,-81.984 -342.393,-87.157 -337.965,-90.335C-333.901,-93.24 -328.882,-94.722 -323.036,-94.745C-319.854,-94.699 -316.335,-94.526 -313.289,-94.054C-310.352,-93.595 -307.479,-93.04 -304.651,-92.385C-301.978,-91.767 -299.305,-91.244 -296.632,-90.812C-294.077,-90.399 -291.486,-90.321 -288.404,-90.203C-283.558,-90.221 -281.93,-92.062 -281.13,-93.444C-279.548,-96.19 -278.748,-99.573 -278.766,-103.505C-278.793,-111.47 -282.839,-117.302 -291.159,-121.339C-300.187,-125.726 -315.207,-128.004 -335.829,-128.099M-334.892,52.93C-353.304,52.93 -368.706,51.285 -380.708,48.034C-393.227,44.643 -403.302,39.41 -410.675,32.482C-418.104,25.499 -423.323,16.648 -426.177,6.183C-428.923,-3.959 -430.351,-15.902 -430.405,-29.322C-430.46,-44.115 -428.323,-58.044 -424.05,-70.714C-419.767,-83.452 -413.53,-94.722 -405.529,-104.196C-397.501,-113.734 -387.463,-121.33 -375.716,-126.785C-363.978,-132.232 -350.558,-135.028 -335.819,-135.082C-313.816,-134.977 -298.223,-132.536 -288.104,-127.622C-277.302,-122.376 -271.811,-114.27 -271.783,-103.528C-271.765,-98.35 -272.874,-93.781 -275.084,-89.949C-276.857,-86.894 -280.594,-83.248 -288.386,-83.22C-291.477,-83.243 -294.832,-83.448 -297.741,-83.92C-300.578,-84.38 -303.397,-84.93 -306.224,-85.584C-308.898,-86.203 -311.607,-86.721 -314.362,-87.153C-317.044,-87.566 -320.372,-87.685 -323.009,-87.762C-327.446,-87.748 -331.001,-86.73 -333.892,-84.661C-336.41,-82.857 -337.62,-79.693 -337.602,-74.996C-337.311,-71.123 -336.092,-69.7 -333.601,-67.123C-328.073,-61.408 -309.298,-54.785 -292.468,-57.439C-279.675,-59.449 -270.447,-66.05 -265.037,-77.065C-259.218,-88.939 -256.063,-95.086 -248.144,-104.864C-239.251,-114.607 -228.595,-122.271 -216.33,-127.804C-204.047,-133.341 -190.454,-136.173 -175.924,-136.223L-175.479,-136.223C-160.759,-136.223 -147.02,-133.496 -134.655,-128.113C-122.153,-122.671 -111.252,-115.143 -102.26,-105.742C-96.559,-99.782 -91.576,-92.917 -87.403,-85.266C-83.357,-92.849 -78.556,-99.691 -73.083,-105.673C-64.309,-115.266 -53.653,-122.93 -41.397,-128.454C-29.122,-133.986 -15.529,-136.819 -0.991,-136.873C13.947,-136.814 27.786,-134.196 40.269,-128.763C52.762,-123.33 63.663,-115.802 72.665,-106.392C81.675,-96.963 88.758,-85.643 93.704,-72.746C93.713,-72.728 93.722,-72.71 93.731,-72.687C94.495,-77.701 95.159,-82.566 95.731,-87.335C96.913,-97.177 99.114,-106.551 102.269,-115.198C105.46,-123.262 109.588,-128.959 114.57,-132.209C119.517,-135.428 126.063,-137.069 134.037,-137.101C143.174,-137.496 150.312,-135.109 154.912,-131.086C159.513,-127.054 162.286,-121.035 163.15,-113.206C163.559,-109.965 163.459,-106.805 162.85,-103.869C162.295,-101.268 161.759,-98.772 161.204,-96.377C160.686,-94.054 160.195,-91.703 159.749,-89.371C159.377,-87.366 159.349,-85.366 159.659,-83.425C160.168,-78.756 161.341,-75.519 163.159,-73.637C164.886,-71.855 166.96,-71.023 169.669,-71.023L169.724,-71.023C172.488,-71.037 174.961,-71.169 177.125,-71.441C179.525,-71.737 182.734,-71.901 186.753,-71.914L186.871,-71.914C192.172,-71.914 197.182,-70.628 201.783,-68.091C206.465,-65.509 210.493,-61.285 213.748,-55.53C216.866,-50.02 219.33,-42.797 221.085,-34.059C222.795,-25.49 223.686,-14.824 223.731,-2.355C223.767,7.015 222.467,15.13 219.867,21.753C217.167,28.622 212.693,34.255 206.583,38.497C200.646,42.615 192.818,45.648 183.316,47.516C174.097,49.325 162.641,50.266 149.284,50.312C137.828,50.353 127.727,49.494 119.553,47.734C111.197,45.939 104.233,43.256 98.85,39.765C93.331,36.178 89.13,31.796 86.385,26.736C86.221,26.445 86.067,26.149 85.912,25.849C84.384,27.668 82.775,29.332 81.057,30.873C73.365,37.751 62.763,42.902 49.552,46.184C36.614,49.403 19.848,51.071 -0.3,51.144C-0.736,51.144 -1.191,51.148 -1.628,51.148C-20.657,51.148 -36.623,49.603 -49.098,46.552C-62.154,43.352 -72.665,38.274 -80.311,31.45C-82.802,29.236 -85.066,26.804 -87.085,24.186C-89.103,26.827 -91.367,29.282 -93.868,31.518C-101.56,38.397 -112.161,43.547 -125.372,46.834C-138.301,50.048 -155.067,51.717 -175.233,51.794C-195.291,51.926 -211.293,50.316 -224.022,47.198C-237.078,44.006 -247.58,38.924 -255.236,32.1C-257.481,30.105 -259.536,27.931 -261.409,25.599C-264.382,30.755 -268.237,35.142 -272.92,38.683C-279.521,43.67 -288.013,47.325 -298.141,49.557C-308.052,51.744 -320.035,52.88 -333.755,52.93L-334.892,52.93Z" style="fill:rgb(153,168,255);fill-rule:nonzero;" />
                </g>
                <g transform="matrix(1.04115,0,0,0.798,960.321,-325.544)">
                    <path d="M0,13.906C0,13.906 1.125,13.729 3.078,13.457C4.053,13.323 5.236,13.159 6.593,12.972C7.946,12.79 9.471,12.585 11.135,12.361C17.776,11.427 26.586,10.329 35.266,8.766C37.44,8.395 39.602,7.973 41.722,7.538C43.843,7.1 45.919,6.637 47.922,6.156C49.922,5.669 51.843,5.159 53.659,4.642C55.467,4.107 57.177,3.589 58.74,3.053C59.531,2.804 60.248,2.482 60.965,2.238C61.686,1.998 62.342,1.719 62.966,1.462C64.224,0.964 65.291,0.463 66.188,0.064C67.078,-0.344 67.758,-0.709 68.237,-0.939C68.718,-1.17 68.975,-1.294 68.975,-1.294C68.975,-1.294 68.774,-1.094 68.398,-0.718C68.006,-0.364 67.477,0.234 66.701,0.858C65.928,1.484 65.005,2.294 63.838,3.057C62.705,3.88 61.36,4.705 59.855,5.541C59.096,5.942 58.311,6.384 57.48,6.798C56.645,7.197 55.775,7.607 54.874,8.006C53.063,8.779 51.124,9.531 49.087,10.205C47.05,10.872 44.926,11.508 42.743,12.031C40.567,12.589 38.332,13.033 36.094,13.442C31.613,14.235 27.095,14.732 22.854,14.977C20.735,15.111 18.682,15.16 16.738,15.18C14.793,15.2 12.954,15.144 11.258,15.074C7.867,14.946 5.048,14.653 3.082,14.397C1.115,14.141 0,13.906 0,13.906" style="fill:white;fill-rule:nonzero;" />
                </g>
                <g transform="matrix(1.04115,0,0,0.798,753.064,-411.549)">
                    <path d="M0,-44.646C0,-44.646 -0.217,-44.513 -0.625,-44.264C-1.036,-44.032 -1.609,-43.628 -2.356,-43.173C-3.086,-42.678 -3.979,-42.11 -4.974,-41.411C-5.98,-40.734 -7.076,-39.918 -8.271,-39.041C-8.876,-38.617 -9.482,-38.137 -10.109,-37.646C-10.732,-37.147 -11.407,-36.683 -12.053,-36.137C-13.347,-35.047 -14.754,-33.972 -16.11,-32.732C-16.791,-32.117 -17.513,-31.531 -18.209,-30.897C-18.889,-30.243 -19.579,-29.586 -20.286,-28.937L-21.345,-27.956L-22.362,-26.917C-23.044,-26.226 -23.729,-25.533 -24.415,-24.84C-25.783,-23.451 -27.033,-21.95 -28.364,-20.563C-29.6,-19.092 -30.805,-17.631 -32.01,-16.241C-33.141,-14.787 -34.234,-13.382 -35.271,-12.049C-35.535,-11.717 -35.795,-11.389 -36.052,-11.066C-36.288,-10.728 -36.521,-10.396 -36.749,-10.07C-37.215,-9.419 -37.666,-8.791 -38.099,-8.187C-38.956,-6.972 -39.853,-5.912 -40.487,-4.878C-41.146,-3.858 -41.768,-2.987 -42.271,-2.261C-43.285,-0.814 -43.92,0 -43.92,0C-43.92,0 -43.665,-0.981 -43.121,-2.675C-42.846,-3.52 -42.522,-4.556 -42.096,-5.724C-41.722,-6.919 -41.108,-8.172 -40.479,-9.569C-40.153,-10.263 -39.814,-10.986 -39.462,-11.734C-39.282,-12.107 -39.098,-12.486 -38.912,-12.87C-38.701,-13.241 -38.487,-13.617 -38.27,-13.999C-37.376,-15.51 -36.456,-17.128 -35.403,-18.738C-34.284,-20.299 -33.141,-21.933 -31.894,-23.525C-30.578,-25.06 -29.262,-26.647 -27.838,-28.131C-26.349,-29.552 -24.963,-31.081 -23.375,-32.347C-22.607,-33.009 -21.834,-33.651 -21.069,-34.282C-20.292,-34.899 -19.49,-35.467 -18.709,-36.032C-17.175,-37.197 -15.56,-38.144 -14.066,-39.075C-12.53,-39.948 -11.069,-40.749 -9.672,-41.396C-8.972,-41.711 -8.3,-42.013 -7.662,-42.3C-7.008,-42.553 -6.388,-42.792 -5.805,-43.018C-4.655,-43.489 -3.589,-43.763 -2.741,-44.03C-1.015,-44.511 0,-44.646 0,-44.646" style="fill:white;fill-rule:nonzero;" />
                </g>
                <g transform="matrix(1.04115,0,0,0.798,861.619,-316.672)">
                    <path d="M0,-21.524C0,-21.524 -0.045,-20.902 -0.334,-19.854C-0.496,-19.343 -0.675,-18.698 -0.974,-18.009C-1.245,-17.298 -1.639,-16.553 -2.068,-15.722C-2.547,-14.936 -3.044,-14.044 -3.692,-13.206C-4.004,-12.775 -4.338,-12.34 -4.685,-11.901C-5.043,-11.474 -5.431,-11.057 -5.817,-10.623C-6.194,-10.177 -6.617,-9.767 -7.056,-9.364C-7.488,-8.953 -7.929,-8.54 -8.385,-8.136C-9.323,-7.366 -10.301,-6.606 -11.31,-5.899C-12.358,-5.256 -13.369,-4.542 -14.451,-4.003C-14.986,-3.722 -15.522,-3.455 -16.057,-3.201C-16.593,-2.952 -17.103,-2.665 -17.648,-2.481C-18.718,-2.065 -19.761,-1.694 -20.751,-1.358C-21.758,-1.066 -22.727,-0.847 -23.616,-0.646C-24.505,-0.445 -25.323,-0.29 -26.07,-0.228C-26.81,-0.144 -27.461,-0.107 -27.993,-0.069C-29.058,0 -29.673,-0.018 -29.673,-0.018C-29.673,-0.018 -29.17,-0.4 -28.279,-0.97C-27.832,-1.252 -27.295,-1.602 -26.672,-1.963C-26.043,-2.31 -25.356,-2.745 -24.612,-3.213C-23.865,-3.673 -23.046,-4.134 -22.192,-4.631C-21.356,-5.164 -20.475,-5.708 -19.552,-6.239C-18.635,-6.78 -17.741,-7.419 -16.783,-7.977C-15.838,-8.559 -14.931,-9.218 -13.986,-9.822C-13.055,-10.443 -12.166,-11.12 -11.25,-11.736C-10.4,-12.429 -9.478,-13.022 -8.677,-13.698C-8.265,-14.024 -7.867,-14.354 -7.456,-14.658C-7.066,-14.985 -6.685,-15.305 -6.314,-15.617C-5.543,-16.221 -4.89,-16.863 -4.221,-17.416C-3.603,-18.004 -2.989,-18.527 -2.49,-19.027C-1.972,-19.527 -1.521,-19.963 -1.15,-20.322C-0.804,-20.702 -0.484,-20.987 -0.303,-21.2C-0.105,-21.411 0,-21.524 0,-21.524" style="fill:white;fill-rule:nonzero;" />
                </g>
                <g transform="matrix(1.04115,0,0,0.798,830.364,-427.772)">
                    <path d="M0,6.402C0,6.402 0.407,6.285 1.083,6.135C1.759,5.977 2.705,5.784 3.794,5.595C4.844,5.415 6.069,5.206 7.381,4.981C8.011,4.869 8.644,4.745 9.264,4.613C9.885,4.473 10.488,4.328 11.056,4.146C11.617,3.973 12.158,3.776 12.619,3.549C12.868,3.446 13.059,3.305 13.291,3.2C13.479,3.06 13.7,2.944 13.874,2.796C14.063,2.659 14.234,2.505 14.395,2.34C14.584,2.192 14.703,1.994 14.864,1.816C15.158,1.443 15.413,1.021 15.623,0.584C15.756,0.374 15.819,0.144 15.915,-0.072C16.003,-0.291 16.105,-0.5 16.164,-0.711C16.283,-1.128 16.464,-1.512 16.535,-1.838C16.71,-2.49 16.862,-2.901 16.862,-2.901C16.862,-2.901 17.118,-2.577 17.474,-1.943C17.662,-1.629 17.818,-1.22 18,-0.736C18.156,-0.249 18.297,0.329 18.346,0.993C18.397,1.657 18.359,2.413 18.156,3.213C17.948,4.008 17.584,4.858 17.015,5.604C16.459,6.357 15.743,7.035 14.946,7.526C14.16,8.065 13.301,8.395 12.456,8.684C10.75,9.187 9.058,9.303 7.542,9.178C6.021,9.059 4.659,8.726 3.535,8.323C2.409,7.919 1.521,7.444 0.919,7.061C0.316,6.687 0,6.402 0,6.402" style="fill:white;fill-rule:nonzero;" />
                </g>
                <g transform="matrix(1.04115,0,0,0.798,1134.63,-335.656)">
                    <path d="M0,26.01C0,26.01 1.505,25.875 4.138,25.638C6.766,25.402 10.508,25.043 14.977,24.583C17.206,24.333 19.621,24.061 22.175,23.774C24.725,23.482 27.4,23.088 30.166,22.721C32.926,22.31 35.773,21.883 38.649,21.376C40.088,21.133 41.534,20.859 42.98,20.575C44.433,20.312 45.876,19.996 47.319,19.676C50.214,19.071 53.064,18.32 55.867,17.576C57.248,17.148 58.635,16.766 59.985,16.337C61.318,15.87 62.671,15.48 63.947,14.981C65.232,14.5 66.506,14.039 67.713,13.514C68.323,13.26 68.927,13.009 69.523,12.761C70.117,12.508 70.677,12.212 71.246,11.945C71.812,11.671 72.371,11.401 72.92,11.136C73.452,10.84 73.976,10.548 74.491,10.261C75.011,9.979 75.522,9.701 76.023,9.428C76.503,9.122 76.975,8.822 77.436,8.528C77.899,8.233 78.354,7.944 78.797,7.662C79.217,7.349 79.628,7.043 80.028,6.744C80.84,6.156 81.626,5.607 82.275,4.993C82.942,4.399 83.599,3.862 84.16,3.323C84.705,2.762 85.206,2.247 85.658,1.782C86.131,1.326 86.496,0.874 86.809,0.475C87.13,0.078 87.404,-0.26 87.625,-0.534C88.078,-1.083 88.32,-1.376 88.32,-1.376C88.32,-1.376 88.16,-1.034 87.859,-0.392C87.703,-0.07 87.511,0.326 87.286,0.793C87.171,1.027 87.049,1.279 86.917,1.548C86.773,1.809 86.591,2.066 86.413,2.35C86.047,2.915 85.643,3.541 85.202,4.222C84.748,4.898 84.149,5.539 83.561,6.278C82.984,7.032 82.271,7.731 81.524,8.484C81.146,8.857 80.758,9.24 80.361,9.631C79.935,9.987 79.499,10.352 79.054,10.724C78.606,11.097 78.148,11.477 77.683,11.866C77.193,12.22 76.695,12.581 76.188,12.949C75.681,13.319 75.153,13.677 74.619,14.046C74.066,14.38 73.504,14.719 72.936,15.062C72.363,15.4 71.793,15.769 71.194,16.094C70.591,16.412 69.982,16.735 69.365,17.061C68.145,17.751 66.829,18.286 65.513,18.891C62.864,20.058 60.058,21.072 57.177,21.994C54.288,22.875 51.322,23.663 48.335,24.315C45.345,24.96 42.341,25.51 39.369,25.92C36.401,26.361 33.466,26.655 30.626,26.896C27.785,27.119 25.034,27.235 22.427,27.298C19.822,27.386 17.356,27.355 15.084,27.296C12.812,27.26 10.73,27.13 8.89,27.008C7.048,26.888 5.445,26.722 4.128,26.578C2.811,26.445 1.779,26.28 1.076,26.184C0.374,26.071 0,26.01 0,26.01" style="fill:white;fill-rule:nonzero;" />
                </g>
                <g transform="matrix(1.04115,0,0,0.798,1147.61,-410.167)">
                    <path d="M0,-15.888C0,-15.888 0.113,-15.949 0.332,-16.03C0.552,-16.108 0.882,-16.243 1.303,-16.342C1.728,-16.463 2.245,-16.567 2.85,-16.668C3.449,-16.731 4.142,-16.829 4.89,-16.816C5.268,-16.81 5.661,-16.804 6.067,-16.798C6.473,-16.768 6.889,-16.709 7.322,-16.662C8.193,-16.583 9.078,-16.32 10.012,-16.092C10.468,-15.944 10.925,-15.767 11.389,-15.59L12.091,-15.321C12.32,-15.217 12.541,-15.089 12.767,-14.972C13.216,-14.729 13.678,-14.498 14.125,-14.235C14.563,-13.959 14.976,-13.636 15.402,-13.335C16.262,-12.737 16.996,-11.983 17.704,-11.239C17.879,-11.051 18.065,-10.875 18.229,-10.681L18.671,-10.063C18.963,-9.654 19.253,-9.253 19.517,-8.846C20.066,-8.048 20.386,-7.151 20.761,-6.365C21.151,-5.581 21.284,-4.745 21.477,-4.019C21.629,-3.276 21.819,-2.625 21.813,-2.001C21.847,-1.389 21.838,-0.853 21.836,-0.419C21.828,0.45 21.763,0.941 21.763,0.941C21.763,0.941 21.422,0.541 20.931,-0.151C20.688,-0.497 20.387,-0.909 20.084,-1.383C19.812,-1.871 19.358,-2.346 18.966,-2.89C18.541,-3.418 18.198,-4.043 17.662,-4.578C17.41,-4.856 17.173,-5.15 16.923,-5.443C16.669,-5.732 16.457,-6.057 16.149,-6.314C15.559,-6.842 15.078,-7.49 14.434,-7.992C13.805,-8.505 13.24,-9.101 12.541,-9.545C12.212,-9.79 11.9,-10.06 11.56,-10.289C11.204,-10.496 10.868,-10.733 10.524,-10.955C9.858,-11.434 9.107,-11.761 8.437,-12.199C7.711,-12.523 7.043,-12.954 6.348,-13.236C6.004,-13.399 5.67,-13.558 5.347,-13.712C5.015,-13.854 4.693,-13.992 4.384,-14.124C3.766,-14.416 3.175,-14.615 2.651,-14.853C2.123,-15.042 1.654,-15.269 1.261,-15.403C0.458,-15.712 0,-15.888 0,-15.888" style="fill:white;fill-rule:nonzero;" />
                </g>
                <g transform="matrix(1.04115,0,0,0.798,960.916,-400.055)">
                    <path d="M0,12.458C0,12.458 0.479,12.276 1.285,12.003C2.091,11.722 3.225,11.341 4.547,10.914C5.869,10.487 7.377,9.989 8.938,9.442C9.72,9.167 10.51,8.869 11.3,8.562C12.084,8.239 12.877,7.927 13.632,7.556C14.403,7.217 15.13,6.817 15.844,6.428C16.537,6.01 17.23,5.612 17.848,5.156C18.175,4.947 18.464,4.705 18.759,4.478C19.069,4.262 19.33,4.01 19.604,3.776C19.894,3.553 20.13,3.298 20.38,3.06C20.644,2.83 20.867,2.582 21.084,2.339C21.553,1.874 21.909,1.382 22.284,0.958C22.628,0.501 22.928,0.103 23.175,-0.225C23.632,-0.92 23.957,-1.335 23.957,-1.335C23.957,-1.335 24.042,-0.843 24.08,0.05C24.077,0.49 24.052,1.031 23.981,1.657C23.864,2.265 23.746,2.979 23.471,3.712C23.228,4.46 22.859,5.24 22.389,6.021C22.156,6.415 21.896,6.808 21.599,7.184C21.319,7.578 20.992,7.945 20.647,8.304C19.97,9.041 19.181,9.706 18.333,10.306C17.487,10.906 16.57,11.418 15.635,11.861C13.751,12.724 11.773,13.275 9.911,13.528C8.047,13.788 6.302,13.793 4.823,13.64C3.344,13.493 2.131,13.208 1.295,12.943C0.459,12.688 0,12.458 0,12.458" style="fill:white;fill-rule:nonzero;" />
                </g>
                <g transform="matrix(1.04115,0,0,0.798,923.89,-419.768)">
                    <path d="M0,12.829C0,12.829 -0.127,12.518 -0.218,11.984C-0.322,11.447 -0.389,10.689 -0.321,9.807C-0.253,8.926 -0.055,7.92 0.331,6.902C0.509,6.388 0.765,5.884 1.028,5.376C1.316,4.878 1.63,4.386 1.984,3.916C2.369,3.468 2.716,2.994 3.168,2.61C3.589,2.203 4.03,1.832 4.511,1.527C4.975,1.208 5.443,0.933 5.932,0.731C6.414,0.525 6.857,0.334 7.318,0.242C7.769,0.139 8.181,0.066 8.547,0.022C8.927,0 9.268,0.025 9.539,0.038C10.083,0.072 10.396,0.152 10.396,0.152C10.396,0.152 10.232,0.46 9.942,0.892C9.797,1.106 9.628,1.367 9.432,1.63C9.25,1.925 9.045,2.234 8.822,2.548C8.588,2.841 8.377,3.212 8.133,3.55C7.879,3.875 7.644,4.248 7.385,4.607C7.114,4.949 6.871,5.34 6.587,5.698C6.311,6.065 6.03,6.437 5.75,6.809C5.448,7.167 5.185,7.562 4.869,7.91C4.593,8.291 4.269,8.633 3.976,8.989C3.371,9.688 2.762,10.347 2.186,10.913C1.615,11.481 1.074,11.957 0.669,12.293C0.269,12.631 0,12.829 0,12.829" style="fill:white;fill-rule:nonzero;" />
                </g>
                <g transform="matrix(1.04115,0,0,0.798,879.287,-449.494)">
                    <path d="M0,32.668C0,32.668 0.275,31.822 0.948,30.424C1.301,29.74 1.698,28.874 2.265,27.962C2.542,27.498 2.835,27.004 3.146,26.483C3.48,25.979 3.833,25.45 4.201,24.898C4.945,23.795 5.832,22.665 6.779,21.469C7.772,20.321 8.79,19.067 9.975,17.904C10.552,17.305 11.149,16.707 11.761,16.107C12.391,15.53 13.033,14.948 13.691,14.374C14.97,13.18 16.412,12.143 17.807,11.046C19.223,9.978 20.728,9.032 22.185,8.074C22.907,7.585 23.683,7.192 24.425,6.769C25.174,6.358 25.914,5.952 26.641,5.552C28.111,4.782 29.6,4.167 30.983,3.546C32.358,2.907 33.747,2.495 34.994,2.058C36.257,1.656 37.389,1.241 38.452,1.025C39.496,0.764 40.419,0.584 41.174,0.427C42.685,0.119 43.558,0 43.558,0C43.558,0 42.82,0.512 41.513,1.309C40.859,1.704 40.072,2.194 39.153,2.702C38.691,2.952 38.212,3.242 37.721,3.575C37.222,3.887 36.697,4.215 36.149,4.556C35.06,5.244 33.835,5.888 32.626,6.723C31.404,7.533 30.082,8.314 28.761,9.193C27.448,10.079 26.091,10.995 24.713,11.926C23.386,12.926 21.959,13.828 20.63,14.864C19.292,15.886 17.912,16.856 16.632,17.912C15.987,18.434 15.335,18.939 14.688,19.435C14.063,19.956 13.444,20.472 12.836,20.978C11.592,21.966 10.469,23.006 9.343,23.942C8.262,24.918 7.204,25.82 6.269,26.694C5.324,27.561 4.442,28.351 3.687,29.08C2.924,29.81 2.259,30.446 1.712,30.97C0.623,32.051 0,32.668 0,32.668" style="fill:white;fill-rule:nonzero;" />
                </g>
                <g transform="matrix(1.04115,0,0,0.798,1066.35,-451.116)">
                    <path d="M0,27.442C0,27.442 0.411,26.71 1.259,25.531C1.679,24.938 2.204,24.231 2.837,23.445C3.48,22.673 4.186,21.771 5.03,20.866C5.861,19.945 6.786,18.972 7.806,17.985C8.81,16.978 9.931,15.988 11.095,14.964C12.271,13.955 13.521,12.953 14.817,11.967C16.137,11.012 17.463,10.021 18.865,9.134C20.271,8.256 21.655,7.343 23.108,6.588C24.531,5.785 25.958,5.045 27.389,4.418C28.101,4.1 28.792,3.772 29.482,3.48C30.173,3.191 30.868,2.943 31.54,2.698C32.889,2.221 34.146,1.742 35.367,1.449C36.575,1.124 37.689,0.865 38.671,0.639C39.667,0.442 40.553,0.344 41.272,0.242C42.713,0.051 43.541,0 43.541,0C43.541,0 42.823,0.452 41.563,1.141C40.932,1.486 40.17,1.9 39.294,2.347C38.438,2.852 37.477,3.417 36.42,3.993C35.353,4.539 34.251,5.256 33.061,5.935C32.473,6.289 31.848,6.606 31.237,6.988C30.63,7.379 29.997,7.749 29.361,8.14C28.729,8.539 28.064,8.896 27.417,9.31C26.774,9.731 26.118,10.147 25.451,10.555C24.115,11.366 22.792,12.25 21.456,13.113C20.098,13.941 18.812,14.886 17.48,15.718C16.176,16.596 14.893,17.461 13.65,18.298C11.155,19.993 8.827,21.575 6.831,22.931C4.795,24.287 3.099,25.416 1.912,26.207C1.318,26.611 0.826,26.903 0.506,27.121C0.176,27.33 0,27.442 0,27.442" style="fill:white;fill-rule:nonzero;" />
                </g>
                <g transform="matrix(1.04115,0,0,0.798,1178.23,-413.085)">
                    <path d="M0,-43.552C0,-43.552 1.026,-43.452 2.783,-43.017C3.646,-42.773 4.723,-42.51 5.896,-42.065C7.098,-41.674 8.404,-41.124 9.835,-40.513C11.22,-39.83 12.771,-39.143 14.292,-38.227C15.061,-37.777 15.85,-37.314 16.657,-36.841C17.432,-36.32 18.224,-35.787 19.029,-35.246C19.431,-34.972 19.835,-34.695 20.243,-34.417C20.634,-34.116 21.027,-33.813 21.422,-33.509C22.212,-32.897 23.009,-32.274 23.802,-31.632C25.361,-30.321 26.874,-28.904 28.382,-27.487C29.794,-25.977 31.269,-24.522 32.579,-22.967C33.229,-22.185 33.864,-21.402 34.483,-20.622C35.095,-19.838 35.745,-19.099 36.29,-18.299C37.396,-16.713 38.437,-15.163 39.409,-13.69C40.349,-12.194 41.125,-10.709 41.874,-9.366C42.613,-8.017 43.266,-6.771 43.742,-5.607C44.258,-4.469 44.663,-3.454 45.004,-2.627C45.682,-0.967 46.015,0 46.015,0C46.015,0 45.317,-0.769 44.188,-2.15C43.627,-2.842 42.937,-3.673 42.196,-4.652C41.469,-5.64 40.543,-6.681 39.582,-7.84C38.609,-8.991 37.626,-10.282 36.516,-11.587C35.38,-12.874 34.199,-14.235 33.006,-15.66C31.771,-17.05 30.434,-18.426 29.15,-19.888C27.82,-21.306 26.408,-22.684 25.044,-24.11C23.626,-25.476 22.197,-26.835 20.783,-28.161C19.304,-29.41 17.94,-30.763 16.486,-31.903C15.776,-32.498 15.078,-33.082 14.394,-33.655C13.689,-34.201 13,-34.735 12.329,-35.256C11.994,-35.52 11.665,-35.781 11.339,-36.038C11.005,-36.28 10.675,-36.519 10.351,-36.754C9.703,-37.23 9.077,-37.691 8.477,-38.133C7.242,-38.963 6.136,-39.795 5.102,-40.441C4.081,-41.115 3.173,-41.675 2.421,-42.149C1.657,-42.582 1.065,-42.974 0.645,-43.192C0.224,-43.427 0,-43.552 0,-43.552" style="fill:white;fill-rule:nonzero;" />
                </g>
                <g transform="matrix(1.04115,0,0,0.798,1248.51,-453.175)">
                    <path d="M0,28.933C0,28.933 -0.109,28.334 -0.157,27.292C-0.214,26.249 -0.208,24.762 -0.016,22.998C0.173,21.235 0.542,19.192 1.177,17.057C1.489,15.988 1.863,14.894 2.315,13.806C2.75,12.711 3.285,11.632 3.848,10.563C4.451,9.513 5.069,8.465 5.798,7.501C6.142,7.008 6.517,6.537 6.911,6.09C7.284,5.63 7.695,5.201 8.104,4.79C8.919,3.961 9.802,3.241 10.671,2.613C11.12,2.313 11.567,2.036 11.996,1.774C12.446,1.536 12.886,1.317 13.305,1.115C14.176,0.753 14.98,0.467 15.725,0.315C16.445,0.111 17.124,0.107 17.642,0.04C18.17,0 18.598,0.057 18.875,0.059C19.155,0.08 19.304,0.091 19.304,0.091C19.304,0.091 18.778,0.424 17.928,0.941C17.517,1.245 17.008,1.543 16.489,1.984C15.951,2.381 15.393,2.887 14.805,3.424C14.524,3.706 14.231,4 13.928,4.305C13.643,4.622 13.348,4.951 13.045,5.288C12.463,5.985 11.874,6.728 11.301,7.534C10.154,9.141 9.046,10.956 8.012,12.845C6.97,14.731 6.005,16.692 5.1,18.558C4.193,20.454 3.347,22.223 2.622,23.74C1.884,25.278 1.235,26.575 0.762,27.489C0.297,28.403 0,28.933 0,28.933" style="fill:white;fill-rule:nonzero;" />
                </g>
                <g transform="matrix(1.04115,0,0,0.798,1320.3,-335.216)">
                    <path d="M0,23.149C0,23.149 0.75,22.897 2.039,22.484C2.679,22.276 3.457,22.024 4.348,21.734C5.229,21.441 6.221,21.11 7.305,20.749C9.459,20.032 11.938,19.166 14.537,18.179C15.183,17.926 15.839,17.67 16.504,17.41C17.159,17.136 17.822,16.859 18.49,16.579C19.81,15.993 21.155,15.418 22.443,14.745C23.757,14.12 25.007,13.396 26.246,12.699C26.847,12.324 27.443,11.952 28.032,11.584C28.595,11.187 29.189,10.832 29.722,10.425C30.811,9.637 31.844,8.839 32.763,8.011C33.229,7.604 33.689,7.206 34.092,6.784C34.505,6.371 34.935,5.987 35.286,5.57C36.04,4.772 36.69,3.993 37.259,3.278C37.81,2.556 38.263,1.893 38.672,1.354C39.372,0.225 39.838,-0.435 39.838,-0.435C39.838,-0.435 39.773,0.339 39.543,1.719C39.363,2.38 39.201,3.226 38.86,4.139C38.685,4.597 38.498,5.084 38.3,5.599C38.089,6.109 37.803,6.611 37.534,7.159C36.956,8.226 36.248,9.353 35.379,10.45C34.526,11.562 33.516,12.648 32.394,13.682C31.275,14.722 30.031,15.689 28.716,16.589C27.391,17.468 25.994,18.282 24.559,18.996C21.68,20.416 18.666,21.487 15.788,22.188C12.909,22.898 10.178,23.287 7.829,23.438C5.478,23.584 3.516,23.532 2.146,23.417C0.776,23.309 0,23.149 0,23.149" style="fill:white;fill-rule:nonzero;" />
                </g>
                <g transform="matrix(1.04115,0,0,0.798,703.988,-323.6)">
                    <path d="M0,-24.526C0,-24.526 5.097,-18.529 10.194,-12.532C10.818,-11.794 11.442,-11.057 12.057,-10.331C12.694,-9.623 13.264,-8.871 13.859,-8.176C14.455,-7.483 15.012,-6.788 15.533,-6.116C16.068,-5.458 16.577,-4.832 17.03,-4.23C17.482,-3.621 17.896,-3.063 18.264,-2.568C18.636,-2.073 18.94,-1.611 19.196,-1.236C19.706,-0.48 19.967,0 19.967,0C19.967,0 19.453,-0.151 18.604,-0.499C18.182,-0.676 17.662,-0.885 17.088,-1.159C16.505,-1.42 15.882,-1.764 15.215,-2.16C14.55,-2.557 13.832,-2.996 13.097,-3.497C12.383,-4.019 11.636,-4.583 10.884,-5.193C10.133,-5.803 9.407,-6.493 8.676,-7.2C7.931,-7.893 7.272,-8.696 6.574,-9.459C5.907,-10.251 5.282,-11.083 4.68,-11.905C4.105,-12.754 3.548,-13.591 3.073,-14.447C2.103,-16.142 1.376,-17.834 0.884,-19.328C0.651,-20.085 0.448,-20.774 0.323,-21.409C0.18,-22.035 0.114,-22.601 0.057,-23.06C-0.044,-23.987 0,-24.526 0,-24.526" style="fill:white;fill-rule:nonzero;" />
                </g>
            </g>
        </g>
    </g>
</svg>