<svg width="448px" height="164px" viewBox="0 0 448 164" style="fill-rule:evenodd;clip-rule:evenodd;stroke-linejoin:round;stroke-miterlimit:2;">
    <g transform="matrix(1,0,0,1,-236,-2187)">
        <g transform="matrix(0.44423,0,0,1.458,31.9845,-47.6577)">
            <g transform="matrix(1.96381,0,0,0.78065,-2339.69,1890.41)">
                <g transform="matrix(1.04115,0,0,0.798,1426.19,-457.498)">
                    <path d="M0,179.626L-0.67,0.191L37.972,0.047L38.067,25.897L51.035,25.849L51.131,51.698L64.012,51.651L64.108,77.411L76.988,77.363L77.084,103.213L90.052,103.165L90.147,128.926L103.028,128.878L102.55,0.096L128.311,0L128.981,179.147L90.339,179.291L90.244,154.775L77.275,154.823L77.179,128.974L64.299,129.022L64.204,103.261L51.323,103.308L51.227,77.458L38.259,77.506L38.163,51.746L25.282,51.794L25.761,179.53L0,179.626Z" style="fill:rgb(153,168,255);fill-rule:nonzero;" />
                </g>
                <g transform="matrix(1.04115,0,0,0.798,1677.3,-355.406)">
                    <path d="M0,-25.331L-0.048,-38.3L-13.017,-38.252L-13.065,-51.133L-51.794,-50.989L-51.746,-38.108L-64.626,-38.06L-64.578,-25.091L0,-25.331ZM-64.291,51.61L-64.339,39.4L-77.22,39.447L-77.268,26.566L-90.148,26.614L-90.436,-50.846L-77.555,-50.894L-77.603,-63.773L-64.722,-63.82L-64.77,-76.701L-0.192,-76.941L-0.144,-64.06L12.737,-64.108L12.785,-51.229L25.665,-51.276L25.833,-6.106L-64.507,-5.77L-64.435,13.638L-51.555,13.59L-51.506,26.471L-12.778,26.327L-12.826,13.446L25.904,13.303L25.952,26.184L13.072,26.231L13.12,39.112L0.239,39.16L0.287,51.37L-64.291,51.61Z" style="fill:rgb(153,168,255);fill-rule:nonzero;" />
                </g>
                <g transform="matrix(1.04115,0,0,0.798,1727.49,-417.157)">
                    <path d="M0,128.861L-0.479,0.263L25.282,0.168L25.33,13.048L38.211,13L38.163,0.12L70.451,0L70.547,25.76L38.259,25.88L38.307,38.761L25.426,38.809L25.761,128.766L0,128.861Z" style="fill:rgb(153,168,255);fill-rule:nonzero;" />
                </g>
                <g transform="matrix(1.04115,0,0,0.798,1898.15,-436.717)">
                    <path d="M0,127.386L-0.048,114.505L12.921,114.457L12.73,62.759L-0.239,62.807L-0.287,49.926L-39.017,50.069L-38.969,62.95L-51.849,62.998L-51.658,114.696L-38.777,114.648L-38.729,127.529L0,127.386ZM-51.514,153.338L-51.562,140.458L-64.443,140.506L-64.491,127.625L-77.371,127.673L-77.658,50.213L-64.778,50.165L-64.826,37.286L-51.945,37.238L-51.993,24.357L-0.383,24.166L-0.335,37.047L12.634,36.998L12.395,-25.856L38.156,-25.952L38.826,153.003L13.065,153.099L13.017,140.219L0.048,140.267L0.096,153.147L-51.514,153.338Z" style="fill:rgb(153,168,255);fill-rule:nonzero;" />
                </g>
            </g>
        </g>
    </g>
</svg>