<svg width="112px" height="51px" viewBox="0 0 112 51" style="fill-rule:evenodd;clip-rule:evenodd;stroke-linejoin:round;stroke-miterlimit:2;">
    <g transform="matrix(1,0,0,1,-404,-1865)">
        <g transform="matrix(0.44423,0,0,1.458,31.9845,-47.6577)">
            <g transform="matrix(1.96381,0,0,0.78065,-190.949,1671.65)">
                <g transform="matrix(1.04115,0,0,0.798,541.331,-460.794)">
                    <path d="M0,55.135L-0.524,8.114L-16.198,8.288L-16.286,0.438L22.885,0L22.973,7.851L7.299,8.027L7.823,55.048L0,55.135Z" style="fill:rgb(153,168,255);fill-rule:nonzero;" />
                </g>
                <g transform="matrix(1.04115,0,0,0.798,571.908,-460.916)">
                    <path d="M0,54.959L-0.612,0.087L7.211,0L7.43,19.612L11.342,19.568L11.299,15.657L25.017,15.504L25.06,19.415L28.998,19.371L29.042,23.283L32.954,23.24L33.304,54.588L25.453,54.675L25.147,27.239L21.236,27.283L21.192,23.371L11.386,23.48L11.43,27.393L7.518,27.437L7.823,54.872L0,54.959Z" style="fill:rgb(153,168,255);fill-rule:nonzero;" />
                </g>
                <g transform="matrix(1.04115,0,0,0.798,643.024,-430.002)">
                    <path d="M0,-8.042L-0.044,-11.98L-3.982,-11.937L-4.026,-15.849L-15.789,-15.718L-15.745,-11.806L-19.656,-11.762L-19.612,-7.823L0,-8.042ZM-19.351,15.674L-19.394,11.762L-23.306,11.806L-23.35,7.895L-27.262,7.937L-27.524,-15.587L-23.612,-15.63L-23.656,-19.542L-19.744,-19.586L-19.787,-23.497L-0.175,-23.716L-0.132,-19.805L3.779,-19.849L3.823,-15.937L7.735,-15.98L7.889,-2.263L-19.547,-1.956L-19.481,3.938L-15.57,3.895L-15.526,7.807L-3.764,7.676L-3.808,3.764L7.954,3.632L7.998,7.544L4.086,7.588L4.13,11.499L0.219,11.543L0.262,15.455L-19.351,15.674Z" style="fill:rgb(153,168,255);fill-rule:nonzero;" />
                </g>
            </g>
        </g>
    </g>
</svg>